<?xml version="1.0" encoding="UTF-8" standalone="no"?>
<!DOCTYPE svg PUBLIC "-//W3C//DTD SVG 1.1//EN" "http://www.w3.org/Graphics/SVG/1.1/DTD/svg11.dtd">
<!-- Generator: Adobe Illustrator 19.0.0, SVG Export Plug-In . SVG Version: 6.00 Build 0)  -->
<svg version="1.1" id="Layer_1" xmlns="http://www.w3.org/2000/svg" xmlns:xlink="http://www.w3.org/1999/xlink" x="0px" y="0px"
	 viewBox="0 0 511.999 511.999" style="enable-background:new 0 0 511.999 511.999;" xml:space="preserve">
<path style="fill:#FF828C;" d="M191.457,371.44c-2.442,5.093-3.866,10.346-3.866,15.751c0,24.764,26.72,46.834,68.41,61.21
	c41.689-14.376,68.41-36.445,68.41-61.21c0-5.231-1.346-10.317-3.639-15.256l-64.775-34.7L191.457,371.44z"/>
<path style="fill:#FF96A0;" d="M379.991,285.928H132.006c-50.166,0-94.872,11.489-123.992,42.756
	c29.12,31.266,73.827,51.307,123.992,51.307s94.872-11.49,123.992-42.756c29.12,31.266,73.827,42.756,123.992,42.756
	s94.872-20.041,123.992-51.307C474.865,297.417,430.158,285.928,379.991,285.928z"/>
<g>
	<path style="fill:#FFA6B1;" d="M255.999,63.597c-36.478,32.132-59.858,81.463-59.858,136.819c0,13.166,1.361,25.975,3.868,38.309
		H311.99c2.507-12.334,3.868-25.143,3.868-38.309C315.857,145.061,292.477,95.729,255.999,63.597z"/>
	<path style="fill:#FFA6B1;" d="M196.141,217.519c-38.736-31.023-92.236-52.005-136.791-51.284
		c-0.876,40.922,19.213,85.109,58.995,119.701s90.596,52.063,137.655,51.301"/>
	<path style="fill:#FFA6B1;" d="M255.999,337.237c47.059,0.762,97.874-16.708,137.655-51.301s59.871-78.779,58.995-119.701
		c-43.945-0.712-98.341,21.102-136.791,51.284"/>
</g>
<g>
	<path style="fill:#FF96A0;" d="M110.649,217.536c-0.648,28.647,14.201,59.579,43.605,83.796
		c29.403,24.216,66.962,36.446,101.745,35.913l-51.307-85.521C176.061,230.006,143.582,217.03,110.649,217.536z"/>
	<path style="fill:#FF96A0;" d="M307.306,251.723l-51.307,85.521c34.783,0.534,72.342-11.696,101.745-35.913
		c29.403-24.216,44.252-55.149,43.605-83.796C368.869,217.038,335.727,230.595,307.306,251.723z"/>
</g>
<path style="fill:#FF828C;" d="M196.141,260.275c0,31.137,23.38,58.887,59.858,76.961c36.478-18.074,59.858-45.824,59.858-76.961
	s-23.38-58.887-59.858-76.961C219.522,201.389,196.141,229.137,196.141,260.275z"/>
<path d="M509.849,323.219c-22.609-24.277-55.462-38.877-97.895-43.603c31.984-33.051,49.567-73.627,48.712-113.552
	c-0.092-4.309-3.575-7.774-7.884-7.844c-39.842-0.65-88.935,16.15-128.921,43.513c0.003-0.438,0.016-0.878,0.016-1.316
	c0-55.744-22.808-107.805-62.576-142.835c-3.029-2.668-7.569-2.668-10.598,0c-39.768,35.029-62.577,87.091-62.577,142.834
	c0,0.388,0.012,0.777,0.014,1.165c-39.377-27.283-88.406-44.008-128.919-43.362c-4.31,0.069-7.793,3.535-7.884,7.844
	c-0.855,39.926,16.727,80.5,48.711,113.551C57.613,284.34,24.759,298.942,2.15,323.22c-2.867,3.078-2.867,7.849,0,10.927
	c31.878,34.229,79.21,53.861,129.859,53.861c17.233,0,33.184-1.349,47.844-4.014c-0.185,1.523-0.278,3.04-0.278,4.548
	c0,27.039,26.923,51.626,73.865,67.455c0.831,0.28,1.696,0.42,2.561,0.42c0.865,0,1.731-0.14,2.561-0.42
	c46.942-15.829,73.865-40.415,73.865-67.455c0-1.507-0.1-3.026-0.286-4.551c14.661,2.666,30.614,4.015,47.849,4.015
	c50.65,0,97.982-19.631,129.859-53.861C512.716,331.068,512.716,326.297,509.849,323.219z M352.649,295.144
	c-18.435,15.184-40.736,25.782-63.997,30.8c22.693-18.482,35.225-41.391,35.225-65.67c0-4.126-0.363-8.211-1.074-12.243
	c24.23-17.387,45.481-22.059,70.296-22.48C391.03,250.428,376.608,275.411,352.649,295.144z M307.843,260.275
	c0,25.981-18.834,50.591-51.842,67.961c-33.008-17.37-51.842-41.98-51.842-67.961s18.834-50.591,51.842-67.961
	C289.009,209.683,307.843,234.295,307.843,260.275z M223.365,325.957c-23.264-5.016-45.576-15.628-64.013-30.814
	c-23.964-19.736-38.387-44.729-40.449-69.611c26.168,0.328,46.268,4.827,70.302,22.468c-0.715,4.042-1.08,8.138-1.08,12.274
	C188.126,284.559,200.664,307.473,223.365,325.957z M444.529,174.382c-1.785,37.341-21.547,75-55.112,104.597
	c13.371-19.202,20.426-40.522,19.949-61.625c-0.097-4.308-3.583-7.769-7.892-7.835c-27.993-0.436-52.727,3.009-79.727,19.919
	c0.342-2.336,0.632-4.678,0.893-7.022C358.537,194.86,406.174,176.203,444.529,174.382z M256.001,74.498
	c33.034,31.85,51.842,77.319,51.842,125.92c0,4.438-0.166,8.89-0.491,13.338c-10.975-14.52-27.159-27.4-47.792-37.623
	c-2.243-1.112-4.876-1.112-7.118,0c-20.633,10.223-36.816,23.103-47.792,37.623c-0.326-4.448-0.491-8.9-0.491-13.338
	C204.159,151.816,222.967,106.348,256.001,74.498z M189.359,222.386c0.254,2.295,0.538,4.587,0.871,6.873
	c-26.374-16.901-49.849-20.199-79.703-19.739c-4.309,0.066-7.794,3.526-7.892,7.835c-0.477,21.103,6.578,42.425,19.95,61.626
	c-33.573-29.604-53.337-67.27-55.115-104.619C106.871,176.052,153.596,194.359,189.359,222.386z M19.318,328.741
	c22.265-20.536,54.676-32.054,96.589-34.355c34.131,28.66,76.762,46.364,119.874,50.127
	c-24.775,18.232-59.566,27.463-103.772,27.463C88.611,371.975,48.002,356.307,19.318,328.741z M316.394,388.543
	c0,19.007-22.516,38.116-60.393,51.381c-37.876-13.266-60.393-32.374-60.393-51.381c0-2.762,0.525-5.561,1.595-8.488
	c23.63-6.52,43.287-17.036,58.797-31.497c15.505,14.457,35.157,24.971,58.779,31.491
	C315.857,382.993,316.394,385.791,316.394,388.543z M379.99,371.972c-44.205,0-78.995-9.231-103.77-27.461
	c43.111-3.765,85.747-21.469,119.876-50.129c41.91,2.303,74.32,13.821,96.585,34.357
	C463.998,356.305,423.388,371.972,379.99,371.972z"/>
<g>
</g>
<g>
</g>
<g>
</g>
<g>
</g>
<g>
</g>
<g>
</g>
<g>
</g>
<g>
</g>
<g>
</g>
<g>
</g>
<g>
</g>
<g>
</g>
<g>
</g>
<g>
</g>
<g>
</g>
</svg>
